<?xml version="1.0" encoding="UTF-8"?>
<svg width="16px" height="16px" viewBox="0 0 16 16" version="1.1" xmlns="http://www.w3.org/2000/svg" xmlns:xlink="http://www.w3.org/1999/xlink">
    <title>Console Whisperer Icon</title>
    <g id="Icon" stroke="none" stroke-width="1" fill="none" fill-rule="evenodd">
        <rect id="Background" fill="#F44336" x="0" y="0" width="16" height="16" rx="2"></rect>
        <path d="M3,4 L13,4 C13.5522847,4 14,4.44771525 14,5 L14,11 C14,11.5522847 13.5522847,12 13,12 L3,12 C2.44771525,12 2,11.5522847 2,11 L2,5 C2,4.44771525 2.44771525,4 3,4 Z" id="Console" stroke="#FFFFFF" stroke-width="1"></path>
        <path d="M4,6 L6,8 L4,10" id="Bracket-Left" stroke="#FFFFFF" stroke-width="1" stroke-linecap="round" stroke-linejoin="round"></path>
        <path d="M12,6 L10,8 L12,10" id="Bracket-Right" stroke="#FFFFFF" stroke-width="1" stroke-linecap="round" stroke-linejoin="round" transform="translate(11.000000, 8.000000) scale(-1, 1) translate(-11.000000, -8.000000) "></path>
        <path d="M7,10 L9,6" id="Error" stroke="#FFFFFF" stroke-width="1" stroke-linecap="round"></path>
    </g>
</svg>
